Coordinates
version=1
nRows=42
nColumns=11
inDegrees=yes

Units are S.I. units (second, meters, Newtons, ...)
If the header above contains a line with 'inDegrees', this indicates whether rotational values are in degrees (yes) or radians (no).

endheader
time	pelvis_tilt	pelvis_tx	pelvis_ty	hip_flexion_r	knee_angle_r	ankle_angle_r	hip_flexion_l	knee_angle_l	ankle_angle_l	lumbar_extension
     46.27171816	      3.92587290	      3.98621162	      0.76972763	     16.88333924	    -16.62348993	      2.41321899	    -25.74512409	    -22.22830572	     -1.62699678	     -2.92713284
     46.30505514	      3.71209779	      4.01135200	      0.77204153	     17.98659349	    -20.85318627	     -1.60400134	    -23.94223497	    -27.30529297	     -6.53929758	     -2.19059672
     46.33839211	      2.73867069	      4.03578052	      0.76664298	     19.48946229	    -24.13046770	     -5.81752113	    -21.09093432	    -33.03208271	    -10.21668409	     -0.85802560
     46.37172908	      1.57111143	      4.06014623	      0.75865477	     20.45179061	    -26.25095594	     -8.10643427	    -17.83511638	    -39.42075832	    -12.96910715	      0.59486252
     46.40506606	      1.35791907	      4.08513450	      0.75203842	     19.67931559	    -27.83265315	     -6.70687856	    -15.54535526	    -46.15839214	    -14.82815943	      1.08468280
     46.43840303	      1.72726537	      4.10638475	      0.75904085	     17.95451883	    -29.06741292	     -2.78684083	    -13.82495278	    -52.28702219	    -17.86347734	      0.92648964
     46.47174000	      3.17705314	      4.12789245	      0.76820389	     14.34688953	    -28.43395990	     -1.33627874	    -12.73879386	    -58.53195300	    -20.47383539	     -0.37309873
     46.50507697	      4.93063198	      4.14734810	      0.77928760	     10.35922786	    -27.26378756	     -1.15952311	    -11.57891380	    -64.04696342	    -20.46137568	     -2.17467193
     46.53841395	      5.38828231	      4.16437742	      0.78930006	      7.86656554	    -25.69982034	     -2.10627342	     -8.68664780	    -68.07010440	    -19.11798840	     -2.69787768
     46.57175092	      5.59720878	      4.18033736	      0.79885417	      5.54371400	    -23.76802914	     -3.29447023	     -5.33023261	    -70.60838761	    -16.76968281	     -3.03505312
     46.60508789	      5.06738984	      4.19571266	      0.80633860	      4.09085700	    -21.83531322	     -4.59614913	     -1.46703660	    -71.52847104	    -13.77450659	     -2.59564453
     46.63842486	      4.26594197	      4.21025304	      0.80958376	      3.05609686	    -20.06246745	     -5.68841842	      2.07198479	    -70.66203818	    -10.61409688	     -1.90049203
     46.67176184	      3.94340030	      4.22502211	      0.81281443	      1.58524045	    -18.42512381	     -6.51113725	      4.67378578	    -68.43286572	     -8.14350047	     -1.77728763
     46.70509881	      2.94475944	      4.23987144	      0.81726373	      1.09993320	    -17.43802395	     -5.19006048	      7.87433008	    -65.39380914	     -6.26188474	     -0.81336750
     46.73843578	      2.59040672	      4.25250080	      0.82090609	     -0.15533295	    -16.18592174	     -5.14692586	     10.27419934	    -61.71067600	     -4.85294234	     -0.68217922
     46.77177276	      1.68565258	      4.26543620	      0.82245093	     -0.67297019	    -15.08606666	     -4.81313611	     13.09968135	    -57.23501355	     -4.34808746	      0.09144525
     46.80510973	      1.25665837	      4.27827900	      0.82147099	     -1.84695449	    -13.75560261	     -4.70116653	     14.85902066	    -51.36013479	     -4.68058870	      0.22202288
     46.83844670	      0.78824408	      4.29219195	      0.81970051	     -3.04367219	    -12.45945546	     -4.18480678	     16.16160364	    -44.49977299	     -6.00561742	      0.42197746
     46.87178367	      0.74271010	      4.30678760	      0.81775425	     -4.72461081	    -11.28087570	     -3.13011159	     16.54590423	    -36.78879093	     -8.05868448	      0.15205739
     46.90512065	      0.74499870	      4.32189118	      0.81504987	     -6.45806049	    -10.34329179	     -1.47454292	     16.48455980	    -28.49813773	    -10.57037760	     -0.09188039
     46.93845762	      0.90132767	      4.33751546	      0.81419267	     -8.48095964	     -9.45986027	      1.40230256	     15.85691693	    -20.03126606	    -13.20907471	     -0.47686118
     46.97179459	      1.16026971	      4.35502474	      0.81195998	    -10.57335663	     -8.56918590	      2.42538476	     14.84274982	    -12.29768959	    -15.01368964	     -0.84861443
     47.00513156	      0.51911065	      4.37230996	      0.80833535	    -11.55823063	     -8.12485968	      4.00088215	     14.65864248	     -5.32127909	    -15.81479872	     -0.21169556
     47.03846854	      0.42605457	      4.39028574	      0.80480217	    -13.05526773	     -7.80393724	      4.99269728	     13.97252494	      0.58886210	    -15.85314587	     -0.17774412
     47.07180551	      0.07090563	      4.40816479	      0.80046030	    -14.02652669	     -8.05340691	      6.42902269	     14.03012221	      4.65110290	    -14.66039612	      0.19543104
     47.10514248	     -0.13207485	      4.42630298	      0.79612040	    -15.10950560	     -8.40859591	      7.64026438	     14.45617716	      7.34650758	    -13.18469557	      0.46209752
     47.13847946	     -0.24654501	      4.44449359	      0.79160998	    -16.07458522	     -9.25369019	      8.95372615	     15.39558207	      8.82518389	    -11.58425289	      0.59315802
     47.17181643	     -0.19814914	      4.46419651	      0.78724135	    -17.21173464	    -10.30665331	     10.09497579	     16.49265366	      8.82798824	     -9.36428048	      0.66114763
     47.20515340	     -0.05374759	      4.48546198	      0.78303736	    -18.42499927	    -11.63830353	     10.78811904	     17.25433801	      7.70518811	     -6.67816800	      0.74623300
     47.23849037	      0.09328221	      4.50787942	      0.77880110	    -19.49131130	    -13.39009825	     11.18245513	     17.63239815	      5.69355859	     -3.96300006	      0.88614523
     47.27182735	      0.16347549	      4.53183847	      0.77408626	    -20.37044333	    -15.53149281	     11.25191132	     17.57422760	      3.13814799	     -2.16835441	      1.20459550
     47.30516432	      0.11638545	      4.55726647	      0.76859487	    -20.94650191	    -18.21260159	     11.00100547	     17.33056914	      0.94003345	     -2.24094915	      1.76725463
     47.33850129	      0.06082462	      4.58339966	      0.76276028	    -21.20490367	    -21.50075109	     10.44074556	     16.70132708	     -0.24052983	     -5.08102313	      2.59018790
     47.37183826	      0.26188839	      4.60936200	      0.75800181	    -21.28231227	    -25.36655238	      8.83702140	     15.54517255	     -1.65526886	     -9.07381533	      3.45321341
     47.40517524	      0.74246207	      4.63475391	      0.75509516	    -21.21432717	    -29.45046728	      5.66380279	     15.33633249	     -5.57683502	    -11.73218562	      3.92779715
     47.43851221	      0.19714830	      4.65927037	      0.76115798	    -19.28416221	    -33.58035390	     -0.41335473	     18.13512190	    -12.97995708	     -7.96912417	      5.02800133
     47.47184918	      0.99806484	      4.67926302	      0.75866886	    -18.85203461	    -38.16504122	     -2.87121531	     19.22590269	    -20.95778775	     -7.24345856	      4.29224079
     47.50518616	      0.45615832	      4.70295193	      0.76136165	    -16.82337665	    -43.38564852	     -5.36934986	     20.36381439	    -25.48962654	     -4.03449891	      4.63881881
     47.53852313	     -0.02150640	      4.72118529	      0.76441427	    -14.41321129	    -49.10563519	     -8.71453597	     18.30929565	    -24.01349764	     -1.39698493	      4.71479720
     47.57186010	     -0.18169626	      4.74028164	      0.77011615	    -12.22421809	    -54.39200992	    -12.13687359	     15.70993413	    -21.44089389	     -0.40784335	      4.60136760
     47.60519707	      0.52746279	      4.75883560	      0.77889164	    -11.18455937	    -58.46227947	    -13.71082355	     12.19424676	    -18.90592462	     -0.66639739	      3.47093973
     47.63853405	      0.58260017	      4.77700111	      0.78693548	     -9.23170509	    -61.54791164	    -14.41776860	      9.83012950	    -16.97201945	     -1.61750176	      3.15795027
